<?xml version="1.0" standalone="no"?>
<!DOCTYPE svg PUBLIC "-//W3C//DTD SVG 20010904//EN"
 "http://www.w3.org/TR/2001/REC-SVG-20010904/DTD/svg10.dtd">
<svg version="1.0" xmlns="http://www.w3.org/2000/svg" viewBox="0 0 1080.000000 1080.000000"
 preserveAspectRatio="xMidYMid meet">

<g transform="translate(0.000000,1080.000000) scale(0.100000,-0.100000)"
fill="#000000" stroke="none">
<path d="M5280 10793 c-1647 -34 -3203 -834 -4197 -2158 -388 -516 -682 -1101
-865 -1720 -39 -131 -42 -150 -46 -287 l-4 -148 2031 0 c1117 0 2031 2 2031 4
0 3 -7 34 -15 70 -21 89 -55 319 -55 369 0 22 6 48 13 56 8 9 19 62 25 118 7
56 20 135 31 175 10 40 22 100 26 133 13 122 59 352 80 407 5 11 1 16 -11 15
-12 -2 -30 21 -58 73 -40 75 -40 76 -42 199 l-3 125 -51 13 c-128 33 -206 105
-251 234 -19 54 -23 84 -22 189 1 112 14 192 29 177 3 -3 9 -45 14 -94 13
-143 61 -259 132 -318 43 -37 84 -53 151 -61 l54 -6 55 55 c53 53 92 76 106
62 3 -3 0 -16 -8 -28 -72 -115 -103 -219 -104 -352 -1 -92 17 -195 35 -195 3
0 12 19 20 43 39 122 101 216 196 299 24 20 32 38 38 79 4 28 14 67 21 85 26
62 24 64 -134 142 -81 40 -174 88 -207 106 -33 18 -85 46 -115 63 -131 72
-254 152 -359 232 -18 14 -41 31 -50 36 -18 10 -49 36 -185 149 -155 128 -376
373 -471 521 -119 186 -160 333 -95 346 37 7 81 -15 121 -59 23 -26 50 -50 61
-54 21 -8 21 -45 0 -40 -7 1 -12 -4 -12 -10 1 -22 45 -91 65 -102 11 -6 23
-15 26 -20 4 -5 12 -6 18 -2 13 9 61 -22 61 -39 0 -7 -7 -18 -15 -25 -24 -20
-18 -35 40 -95 30 -31 55 -61 55 -66 0 -5 9 -9 19 -9 14 0 21 8 23 27 2 14 9
28 16 31 9 3 11 -3 6 -25 -4 -15 -12 -31 -17 -34 -14 -10 -1 -39 18 -39 9 0
15 9 15 24 0 13 6 27 13 29 8 4 9 8 1 14 -13 9 -36 74 -30 81 7 6 30 -18 45
-47 9 -17 19 -22 36 -18 27 5 39 -14 22 -33 -10 -10 -7 -10 11 0 13 6 27 8 30
4 4 -4 1 -9 -5 -11 -7 -3 -13 -13 -13 -23 0 -25 -18 -36 -26 -16 -3 9 -14 16
-23 16 -21 0 -61 -44 -52 -57 8 -13 51 -11 51 2 0 5 5 3 10 -5 5 -8 10 -10 10
-5 0 11 49 -65 50 -77 0 -4 -7 -5 -15 -2 -29 12 -12 -12 48 -65 43 -39 62 -50
66 -40 5 15 56 69 65 69 3 0 6 -9 6 -20 0 -11 5 -20 10 -20 14 0 12 -27 -2
-33 -10 -4 -10 -8 1 -15 8 -6 11 -17 6 -32 -5 -16 -4 -20 5 -15 9 6 10 1 5
-16 -7 -21 -6 -22 9 -10 20 17 33 7 17 -13 -8 -9 -8 -16 -2 -20 5 -4 12 -2 16
4 10 16 28 12 21 -5 -3 -10 1 -18 11 -22 9 -4 18 -2 21 5 4 13 32 4 32 -10 0
-6 -7 -8 -15 -4 -8 3 -15 1 -15 -5 0 -5 8 -13 17 -16 9 -4 31 -22 47 -42 37
-41 104 -91 123 -91 7 0 13 7 13 15 0 18 16 20 24 3 3 -7 3 -2 0 12 -9 35 -14
38 -29 16 -9 -12 -20 -16 -32 -12 -16 7 -16 9 7 26 33 25 17 39 -19 17 -32
-19 -41 -14 -41 20 0 13 -8 26 -17 30 -21 8 -76 64 -69 70 3 3 17 -4 33 -14
15 -11 36 -23 46 -26 9 -4 17 -11 17 -16 0 -6 18 -16 40 -22 22 -7 40 -15 40
-18 0 -3 38 -4 84 -3 85 4 88 3 131 -36 8 -7 15 -11 15 -7 0 4 7 0 15 -9 8 -8
15 -17 15 -20 0 -10 -76 -6 -86 4 -6 6 -25 7 -42 4 -24 -5 -32 -12 -32 -28 0
-31 -16 -50 -35 -43 -19 8 -11 27 11 27 8 0 14 9 14 20 0 23 -25 27 -34 5 -3
-8 -12 -15 -21 -15 -8 0 -15 -5 -15 -10 0 -12 50 -59 63 -60 5 0 17 -10 26
-22 11 -13 23 -18 31 -13 10 6 9 10 -4 17 -9 5 -14 13 -11 19 10 15 25 11 25
-7 0 -9 6 -14 13 -11 6 2 11 12 11 21 -2 13 1 14 12 5 16 -13 19 -33 4 -24 -5
3 -10 1 -10 -4 0 -6 -7 -11 -15 -11 -28 0 -15 -28 19 -40 18 -6 52 -27 74 -48
22 -20 88 -61 146 -91 58 -29 110 -59 116 -66 11 -14 20 -14 98 0 53 9 55 25
3 25 -22 0 -42 4 -46 9 -3 6 13 8 41 6 36 -3 45 -1 40 11 -3 8 -1 24 3 36 9
23 9 23 16 -4 7 -29 25 -38 25 -14 0 8 3 22 6 31 5 11 0 18 -15 22 -24 6 -29
43 -6 43 8 0 15 -9 15 -20 0 -11 4 -20 9 -20 5 0 14 -20 20 -45 11 -44 12 -45
51 -45 34 0 40 -3 40 -21 0 -19 -4 -20 -47 -14 -34 4 -59 1 -88 -10 -37 -16
-38 -18 -20 -31 15 -11 16 -17 7 -26 -19 -19 -15 -26 18 -33 17 -4 36 -12 43
-18 25 -24 118 -69 132 -63 8 3 15 1 15 -4 0 -6 9 -10 19 -10 11 0 26 -6 33
-12 7 -7 31 -22 53 -33 22 -10 48 -25 57 -33 10 -8 25 -11 39 -7 14 5 19 4 15
-4 -8 -12 32 -31 65 -31 29 0 23 13 -15 34 -19 10 -37 25 -40 32 -3 8 -12 14
-21 14 -8 0 -15 7 -15 15 0 8 -6 15 -13 15 -7 0 -18 9 -24 20 -20 30 -71 54
-88 40 -8 -7 -19 -9 -25 -5 -16 10 -12 33 6 31 23 -2 29 20 7 26 -10 3 -29 27
-43 54 -27 53 -74 104 -95 104 -8 0 -17 10 -21 23 -3 12 -13 30 -22 40 -8 9
-12 17 -7 17 4 0 -4 9 -19 21 -14 11 -26 29 -26 40 0 17 -11 24 -34 20 -5 -1
-6 6 -2 15 4 10 -3 32 -19 55 -14 21 -25 43 -25 48 0 8 -26 43 -81 109 -15 18
-10 26 37 64 23 18 77 62 120 97 44 35 115 88 159 117 91 59 283 154 312 154
10 0 23 4 29 9 16 15 183 51 290 63 125 14 338 -1 449 -31 39 -11 97 -27 130
-36 74 -20 127 -42 283 -121 l122 -62 0 62 c0 77 13 115 47 140 55 41 133 10
158 -63 19 -58 19 -176 0 -232 -16 -43 -15 -44 7 -62 74 -56 160 -139 196
-188 75 -101 142 -262 174 -419 36 -181 29 -540 -16 -770 -29 -150 -40 -180
-63 -179 -23 0 -98 15 -143 27 -19 5 -80 22 -135 36 -55 15 -111 31 -125 36
-124 43 -263 81 -270 74 -4 -5 -14 -92 -21 -194 -13 -200 -5 -376 26 -600 22
-153 18 -147 63 -113 104 80 176 111 277 119 74 6 123 -18 170 -84 28 -41 30
-50 30 -130 0 -90 -16 -147 -56 -203 -10 -15 -19 -30 -19 -33 0 -3 837 -6
1860 -6 l1860 0 0 133 c0 131 -1 138 -49 303 -94 320 -179 540 -326 839 -643
1312 -1755 2290 -3135 2758 -578 196 -1213 293 -1840 280z m-2011 -950 c6 -10
11 -15 11 -10 0 15 56 -22 69 -47 12 -21 17 -23 29 -14 11 10 16 9 23 -5 6 -9
16 -17 23 -17 7 0 22 -9 34 -20 12 -11 33 -25 47 -30 35 -13 31 -36 -9 -51
-19 -7 -33 -16 -31 -20 5 -7 -18 -19 -37 -19 -6 0 -8 9 -5 19 3 15 -1 21 -16
23 -11 2 -22 9 -25 16 -5 17 26 15 45 -3 17 -18 37 -15 41 6 3 17 -49 51 -104
67 -27 8 -45 20 -52 37 -6 14 -15 25 -20 25 -14 0 -52 36 -52 49 0 17 18 13
29 -6z m303 -185 c21 -21 75 -48 92 -48 9 0 16 -4 16 -8 0 -12 103 -72 123
-72 9 0 17 -4 17 -9 0 -5 10 -13 22 -17 28 -8 144 -79 179 -109 15 -12 65 -41
112 -64 48 -23 89 -46 92 -51 4 -6 10 -8 15 -5 5 3 12 0 17 -7 9 -15 37 -33
71 -48 12 -5 22 -14 22 -20 0 -5 11 -10 24 -10 14 0 38 -11 54 -25 17 -14 33
-25 37 -25 4 0 19 -8 33 -18 15 -10 46 -24 70 -32 49 -15 67 -33 58 -56 -5
-12 -13 -14 -33 -9 -16 4 -30 10 -33 15 -3 4 -16 10 -30 11 -17 3 -26 11 -28
27 -2 12 -10 22 -19 22 -8 0 -28 10 -45 21 -25 18 -32 19 -39 8 -7 -11 -10 -9
-15 9 -7 23 -24 31 -24 11 0 -7 -8 -17 -17 -24 -15 -11 -19 -9 -30 12 -16 32
-16 36 1 30 8 -3 17 -3 20 1 4 3 -14 14 -40 24 -44 18 -47 18 -60 1 -7 -10
-14 -13 -14 -8 0 6 -4 5 -8 -1 -4 -7 -25 -15 -46 -18 -44 -7 -59 -16 -30 -17
13 0 6 -6 -19 -18 -30 -14 -48 -16 -99 -9 -48 6 -65 5 -76 -5 -11 -12 -19 -9
-48 16 -40 36 -38 48 4 18 30 -21 50 -18 31 6 -9 10 -8 13 5 13 9 0 19 6 22
14 7 19 62 11 96 -14 l27 -20 32 35 c21 23 38 33 49 30 21 -7 50 3 50 17 0 16
-31 42 -73 60 -50 23 -50 23 -43 -7 4 -14 2 -25 -4 -25 -5 0 -10 6 -10 14 0 8
-16 16 -40 20 -22 3 -40 11 -40 16 0 6 5 10 10 10 6 0 10 7 10 15 0 8 -6 15
-14 15 -8 0 -18 5 -22 12 -4 7 -3 8 4 4 7 -4 12 -2 12 3 0 14 -17 14 -25 2 -6
-10 -55 34 -55 49 0 17 -59 41 -85 34 -20 -5 -30 0 -46 21 -12 14 -31 31 -43
36 -11 5 -41 25 -66 43 -25 19 -52 35 -60 36 -8 0 -24 7 -34 15 -11 8 -27 15
-37 15 -12 0 -15 6 -11 25 5 28 14 31 34 13z m-189 -33 c8 -18 -11 -31 -25
-17 -11 11 -3 32 12 32 4 0 10 -7 13 -15z m50 -42 c-7 -2 -19 -2 -25 0 -7 3
-2 5 12 5 14 0 19 -2 13 -5z m307 -144 c25 -5 51 -12 59 -15 21 -7 0 -23 -33
-26 -31 -3 -62 -39 -53 -62 10 -25 -27 -5 -58 32 -20 23 -26 37 -17 40 6 2 10
8 6 13 -9 15 6 29 29 29 12 0 42 -5 67 -11z m180 -81 c0 -5 0 -14 0 -20 0 -9
-4 -8 -10 2 -7 11 -10 11 -10 2 0 -7 -5 -10 -12 -6 -7 5 -8 3 -3 -6 4 -7 7
-30 7 -52 -1 -28 2 -38 13 -38 8 0 15 -6 15 -13 0 -7 -9 -13 -20 -13 -12 0
-19 5 -16 12 3 7 -6 20 -20 29 -14 9 -22 21 -18 27 4 7 3 8 -4 4 -7 -4 -16 2
-21 17 -6 14 -16 27 -23 30 -21 7 -4 17 36 21 21 2 39 6 42 9 7 7 44 3 44 -5z
m-151 -45 c0 -5 -4 -17 -9 -28 -8 -18 -9 -17 -9 8 -1 15 4 27 9 27 6 0 10 -3
9 -7z m-79 -19 c0 -8 -4 -12 -10 -9 -5 3 -10 10 -10 16 0 5 5 9 10 9 6 0 10
-7 10 -16z m40 -34 c0 -5 -4 -10 -10 -10 -5 0 -10 5 -10 10 0 6 5 10 10 10 6
0 10 -4 10 -10z m650 -155 c0 -8 -4 -15 -10 -15 -5 0 -10 7 -10 15 0 8 5 15
10 15 6 0 10 -7 10 -15z m-207 -2 c-7 -2 -13 -14 -13 -25 0 -22 -30 -22 -38 0
-3 11 30 31 53 31 6 -1 4 -3 -2 -6z m68 -8 c0 -5 -12 -11 -26 -13 -18 -2 -25
1 -25 13 0 12 7 15 25 13 14 -2 26 -7 26 -13z m212 -76 c11 -15 16 -17 20 -7
3 7 5 -9 5 -37 0 -27 -2 -42 -5 -32 -2 9 -8 17 -11 18 -31 3 -48 10 -57 22
-15 19 -43 28 -48 14 -2 -7 -8 -9 -11 -5 -4 3 2 16 13 27 27 27 75 27 94 0z
m177 -68 c-6 -12 -6 -22 -1 -25 5 -3 12 5 15 19 9 35 35 32 42 -5 4 -16 14
-32 24 -35 19 -6 67 -91 57 -102 -4 -3 -7 2 -7 13 0 15 -2 16 -9 4 -6 -8 -7
-18 -5 -22 3 -4 0 -8 -6 -8 -6 0 -8 -5 -4 -12 5 -7 3 -8 -5 -4 -9 6 -12 -8
-10 -60 2 -61 0 -68 -19 -75 -14 -5 -20 -14 -16 -24 8 -21 -21 -30 -52 -17
-36 17 -30 30 29 57 28 14 46 25 40 25 -9 0 -13 16 -13 49 0 40 3 50 20 54 31
8 25 29 -7 23 -84 -16 -103 -18 -103 -7 0 16 49 34 88 32 38 -3 40 4 10 30
-22 18 -62 19 -120 3 -13 -4 -18 0 -18 15 0 12 -5 21 -11 21 -15 0 -43 30 -34
38 5 6 82 26 118 31 4 0 3 -8 -3 -18z m-123 -97 c2 -6 -21 -10 -56 -10 -66 1
-69 12 -6 19 50 4 58 3 62 -9z m-64 -64 c40 1 67 -4 85 -16 18 -12 27 -13 30
-6 8 24 22 11 22 -21 0 -18 5 -38 10 -43 7 -7 3 -15 -14 -23 -21 -12 -27 -11
-47 8 -13 11 -30 22 -38 23 -61 6 -91 18 -91 34 0 8 8 14 17 14 9 0 13 3 10 7
-4 3 -18 0 -32 -7 -20 -11 -27 -11 -40 0 -24 20 -19 44 8 36 12 -4 48 -7 80
-6z m365 -42 c-2 -6 -10 -14 -16 -16 -7 -2 -10 2 -6 12 7 18 28 22 22 4z
m-328 -48 c0 -5 -2 -10 -4 -10 -3 0 -8 5 -11 10 -3 6 -1 10 4 10 6 0 11 -4 11
-10z m120 -55 c0 -8 -4 -15 -9 -15 -13 0 -22 16 -14 24 11 11 23 6 23 -9z
m147 -31 c-3 -3 -12 -4 -19 -1 -8 3 -5 6 6 6 11 1 17 -2 13 -5z m293 -164 c0
-16 -31 -19 -36 -5 -8 20 -34 19 -34 -1 0 -8 -4 -12 -10 -9 -5 3 -10 1 -10 -4
0 -22 -26 -10 -50 23 -14 18 -29 32 -35 30 -16 -6 -38 13 -31 25 11 18 56 13
83 -9 35 -27 43 -25 43 13 l1 32 39 -44 c22 -24 40 -47 40 -51z m75 -70 c10
-16 -16 -43 -28 -31 -11 11 -2 41 12 41 5 0 13 -5 16 -10z m53 -38 c3 -9 -2
-13 -14 -10 -9 1 -19 9 -22 16 -3 9 2 13 14 10 9 -1 19 -9 22 -16z"/>
<path d="M3800 9489 c0 -5 5 -7 10 -4 6 3 10 8 10 11 0 2 -4 4 -10 4 -5 0 -10
-5 -10 -11z"/>
<path d="M3960 9160 c0 -5 5 -10 10 -10 6 0 10 5 10 10 0 6 -4 10 -10 10 -5 0
-10 -4 -10 -10z"/>
<path d="M3681 9422 c-7 -13 -10 -28 -7 -35 2 -7 5 -5 5 5 1 9 6 18 13 20 6 2
9 11 6 18 -3 11 -8 9 -17 -8z"/>
<path d="M4455 8750 c-3 -5 -2 -10 4 -10 5 0 13 5 16 10 3 6 2 10 -4 10 -5 0
-13 -4 -16 -10z"/>
<path d="M3306 9682 c-3 -6 -1 -14 5 -17 14 -9 20 -2 10 14 -6 8 -11 9 -15 3z"/>
<path d="M3576 9382 c-8 -14 2 -39 20 -46 17 -7 17 2 0 33 -8 14 -16 19 -20
13z"/>
<path d="M3790 9224 c0 -9 5 -14 12 -12 18 6 21 28 4 28 -9 0 -16 -7 -16 -16z"/>
<path d="M3796 9171 c-4 -7 -5 -15 -2 -18 9 -9 19 4 14 18 -4 11 -6 11 -12 0z"/>
<path d="M4720 8521 c0 -5 11 -11 25 -13 28 -6 34 6 9 16 -22 8 -34 7 -34 -3z"/>
<path d="M4731 8398 c-49 -129 -35 -362 31 -522 11 -27 12 -26 38 58 38 124
40 126 149 121 50 -3 91 0 91 5 0 11 -42 41 -97 69 -24 12 -43 25 -43 29 0 5
25 36 56 71 46 51 54 64 44 76 -7 8 -17 15 -22 15 -5 0 -57 23 -115 50 -58 28
-110 50 -115 50 -4 0 -12 -10 -17 -22z"/>
<path d="M5061 8173 c4 -146 38 -246 122 -355 16 -21 34 -38 41 -38 8 0 17 31
24 88 13 94 53 224 71 230 8 3 11 -54 11 -192 0 -129 4 -196 10 -196 20 0 93
42 164 95 72 53 196 175 196 193 0 5 -19 17 -42 27 -24 10 -59 25 -78 33 -19
8 -75 32 -125 53 -130 54 -253 107 -305 130 -24 12 -55 25 -68 30 l-24 9 3
-107z"/>
<path d="M5380 8190 c0 -6 7 -10 15 -10 8 0 15 2 15 4 0 2 -7 6 -15 10 -8 3
-15 1 -15 -4z"/>
<path d="M4604 8045 c-4 -9 -4 -18 -2 -21 9 -8 39 8 35 19 -6 18 -27 20 -33 2z"/>
<path d="M5816 7943 c-3 -4 12 -16 35 -27 39 -20 43 -26 59 -86 9 -36 22 -75
29 -88 12 -23 13 -23 26 -5 8 10 15 25 15 34 0 15 13 46 33 76 5 8 22 5 65
-11 98 -39 136 -68 151 -117 18 -57 83 -199 91 -199 4 0 14 19 23 43 63 171
66 197 29 197 -10 0 -22 4 -28 8 -5 5 -29 14 -54 21 -44 13 -255 89 -377 137
-64 25 -85 29 -97 17z"/>
<path d="M4591 7711 c-36 -9 -66 -22 -69 -29 -2 -7 -10 -12 -17 -12 -11 0 -47
-37 -98 -99 -6 -8 -11 -37 -12 -65 0 -41 3 -51 18 -54 10 -2 52 -37 93 -77
102 -100 98 -126 -17 -108 -32 5 -59 8 -59 6 0 -36 116 -160 180 -193 56 -28
140 -43 228 -39 77 4 84 6 107 34 71 84 123 237 113 329 -12 108 -114 252
-210 300 -62 31 -154 33 -257 7z"/>
<path d="M5842 7488 c-23 -4 -47 -10 -52 -13 -6 -4 -22 -9 -37 -11 -14 -3 -40
-12 -57 -21 -35 -18 -126 -112 -126 -130 0 -6 -4 -13 -9 -15 -5 -1 -11 -21
-13 -43 -2 -35 0 -41 24 -52 31 -15 132 -122 152 -162 23 -43 8 -55 -60 -47
-32 4 -64 12 -71 18 -40 33 -14 -47 36 -110 35 -44 141 -116 221 -148 51 -21
83 -27 149 -28 l83 -1 50 55 c107 120 152 284 113 414 -58 191 -238 323 -403
294z"/>
<path d="M5961 5980 l-44 -20 7 -73 c4 -39 11 -98 17 -130 9 -53 8 -60 -13
-86 -14 -18 -50 -40 -93 -57 -38 -15 -90 -36 -115 -47 -243 -109 -386 -164
-397 -153 -7 6 -15 38 -18 71 -3 33 -11 91 -17 129 l-12 68 -42 -5 c-23 -2
-56 -14 -73 -27 -18 -12 -57 -36 -89 -52 -58 -31 -130 -85 -167 -124 -62 -66
-95 -106 -95 -114 0 -6 -4 -10 -8 -10 -9 0 -86 -114 -139 -205 -28 -49 -73
-150 -73 -165 0 -5 18 -6 40 -3 34 5 54 -1 124 -36 95 -48 120 -76 141 -158
16 -58 15 -99 -6 -213 -28 -154 -137 -329 -214 -345 -14 -3 -36 -7 -50 -10
-14 -3 -22 -10 -20 -18 8 -20 -10 -130 -64 -387 -70 -330 -70 -328 -73 -384
l-3 -49 45 -11 c41 -10 45 -14 48 -43 3 -25 13 -39 43 -60 l40 -28 -5 -453 -6
-453 28 -10 c15 -6 59 -17 97 -25 39 -8 81 -19 95 -25 35 -16 61 -20 175 -26
124 -7 331 13 365 35 14 9 38 17 54 19 17 2 39 9 51 17 20 13 20 19 14 122 -4
60 -10 184 -13 277 -5 186 -6 184 58 146 23 -13 36 -29 37 -42 3 -57 38 -410
51 -514 11 -91 7 -87 100 -103 29 -6 79 -16 111 -22 127 -28 505 19 541 67 6
8 47 32 91 54 44 23 90 49 103 59 l23 18 -16 255 c-9 139 -18 259 -20 266 -7
20 9 24 153 44 223 31 592 132 777 214 108 48 143 68 154 88 30 57 31 187 1
297 -38 143 -68 278 -106 480 -46 246 -111 545 -199 915 -24 99 -53 230 -64
291 -47 251 -96 338 -214 382 -32 12 -64 22 -71 22 -32 0 -154 44 -183 66 -31
23 -41 46 -58 129 -4 16 -24 46 -45 66 -81 77 -233 109 -520 109 -173 0 -200
-3 -239 -20z m-144 -1035 c80 -34 149 -138 174 -264 8 -43 18 -65 31 -72 25
-13 103 -35 340 -95 161 -41 191 -45 248 -40 63 7 167 28 202 41 24 9 57 -71
62 -153 2 -37 7 -75 11 -85 4 -9 5 -32 1 -50 -3 -17 -10 -63 -15 -102 -34
-231 -81 -304 -229 -357 -102 -36 -258 -5 -384 75 -90 58 -248 188 -362 298
-98 93 -107 100 -136 94 -74 -16 -151 49 -227 193 -52 98 -76 186 -77 287 0
63 4 89 21 120 26 50 80 98 143 127 22 10 160 -2 197 -17z"/>
<path d="M6810 4451 c0 -6 4 -13 10 -16 6 -3 7 1 4 9 -7 18 -14 21 -14 7z"/>
<path d="M4466 4241 c-4 -7 -5 -15 -2 -18 9 -9 19 4 14 18 -4 11 -6 11 -12 0z"/>
<path d="M6381 2134 c0 -11 3 -14 6 -6 3 7 2 16 -1 19 -3 4 -6 -2 -5 -13z"/>
<path d="M5407 1396 c-4 -10 -7 -28 -7 -41 0 -20 -9 -25 -78 -44 -87 -23 -225
-28 -314 -11 -85 17 -138 32 -138 39 0 4 -6 15 -13 25 -12 16 -19 14 -105 -28
-51 -26 -106 -46 -125 -46 -49 0 -368 -56 -492 -85 -60 -15 -121 -29 -135 -32
-99 -20 -351 -127 -430 -181 -128 -88 -170 -145 -170 -229 0 -71 24 -116 102
-189 208 -194 788 -347 1453 -384 94 -5 206 -12 250 -15 45 -4 220 -1 390 5
624 22 1151 121 1470 276 222 107 323 243 274 371 -27 72 -131 159 -274 231
-34 17 -124 51 -200 77 -133 44 -197 61 -344 90 -67 13 -77 21 -87 73 -6 30
-7 31 -20 15 -7 -10 -14 -26 -14 -35 0 -23 -81 -82 -150 -110 -102 -40 -269
-24 -352 34 -19 13 -30 31 -34 58 -4 22 -12 45 -20 51 -8 6 -89 13 -208 16
l-195 6 -14 41 c-10 31 -15 36 -20 22z"/>
</g>
</svg>
